<?xml version="1.0" encoding="UTF-8"?>
<svg xmlns="http://www.w3.org/2000/svg" xmlns:xlink="http://www.w3.org/1999/xlink" width="219pt" height="178pt" viewBox="0 0 219 178" version="1.1">
<g id="surface1">
<path style=" stroke:none;fill-rule:nonzero;fill:rgb(0%,0%,0%);fill-opacity:1;" d="M 144.917969 0.359375 C 144.25 0.722656 143.035156 0.789062 142.742188 0.5 C 142.589844 0.34375 142.4375 0.394531 142.09375 0.671875 C 141.835938 0.859375 141.5625 0.980469 141.476562 0.929688 C 141.390625 0.894531 141.136719 0.980469 140.894531 1.132812 C 140.535156 1.375 140.367188 1.390625 140.023438 1.21875 C 139.425781 0.945312 139.082031 0.980469 138.824219 1.324219 C 138.636719 1.582031 138.550781 1.597656 138.261719 1.410156 C 138.054688 1.304688 137.867188 1.203125 137.816406 1.203125 C 137.746094 1.203125 137.765625 1.304688 137.832031 1.410156 C 137.902344 1.527344 137.78125 1.476562 137.578125 1.304688 C 137.21875 0.980469 137.183594 0.980469 136.722656 1.253906 C 136.105469 1.613281 135.675781 1.632812 135.675781 1.289062 C 135.675781 0.929688 135.421875 0.960938 135.128906 1.390625 C 135.011719 1.597656 134.53125 1.890625 134.085938 2.0625 C 133.367188 2.335938 133.28125 2.335938 133.28125 2.097656 C 133.28125 1.957031 133.417969 1.683594 133.589844 1.496094 C 133.882812 1.152344 133.882812 1.152344 133.332031 1.460938 C 132.785156 1.785156 132.769531 1.785156 132.527344 1.460938 C 132.289062 1.132812 132.253906 1.132812 131.742188 1.410156 C 131.433594 1.582031 131.058594 1.71875 130.886719 1.71875 C 130.714844 1.71875 130.527344 1.785156 130.460938 1.871094 C 130.320312 2.113281 129.328125 2.578125 129.175781 2.492188 C 129.089844 2.441406 129.003906 2.578125 128.96875 2.785156 C 128.9375 3.042969 128.816406 3.160156 128.609375 3.160156 C 128.390625 3.144531 128.320312 3.265625 128.320312 3.640625 C 128.320312 4.089844 128.285156 4.140625 128.0625 3.953125 C 127.859375 3.78125 127.808594 3.796875 127.808594 4.089844 C 127.808594 4.535156 127.5 4.757812 126.832031 4.777344 C 126.300781 4.792969 126.265625 4.757812 126.265625 4.175781 C 126.265625 3.554688 126.265625 3.554688 125.925781 3.867188 C 125.652344 4.125 125.601562 4.3125 125.683594 4.707031 C 125.789062 5.242188 125.789062 5.242188 125.445312 4.929688 C 124.96875 4.5 124.539062 4.621094 124.316406 5.257812 C 124.214844 5.550781 123.90625 5.996094 123.617188 6.238281 C 123.136719 6.648438 123.117188 6.699219 123.308594 7.214844 C 123.511719 7.75 123.496094 7.765625 123.101562 7.679688 C 122.726562 7.613281 122.675781 7.664062 122.675781 8.109375 C 122.675781 8.488281 122.8125 8.675781 123.273438 8.953125 C 123.890625 9.3125 124.058594 9.621094 123.648438 9.621094 C 123.308594 9.621094 122.503906 10.035156 122.503906 10.207031 C 122.503906 10.292969 122.382812 10.257812 122.246094 10.136719 C 122.09375 10.015625 121.9375 9.964844 121.871094 10.035156 C 121.683594 10.222656 122.332031 10.789062 122.878906 10.894531 C 123.289062 10.980469 123.375 11.066406 123.308594 11.324219 C 123.257812 11.527344 123.324219 11.699219 123.476562 11.753906 C 123.835938 11.890625 123.617188 12.148438 123.015625 12.265625 C 122.554688 12.351562 122.503906 12.40625 122.675781 12.695312 C 122.949219 13.246094 122.878906 13.382812 122.246094 13.503906 C 121.921875 13.554688 121.597656 13.675781 121.546875 13.761719 C 121.492188 13.847656 121.304688 13.917969 121.101562 13.917969 C 120.808594 13.917969 120.773438 13.984375 120.878906 14.296875 C 121.304688 15.53125 120.808594 16.71875 119.644531 17.265625 C 119.285156 17.4375 118.875 17.679688 118.738281 17.800781 C 117.609375 18.8125 117.472656 18.898438 116.804688 18.898438 C 116.292969 18.898438 116.019531 19.003906 115.726562 19.328125 C 115.4375 19.636719 115.164062 19.757812 114.703125 19.757812 C 114.324219 19.757812 113.914062 19.878906 113.726562 20.050781 C 113.46875 20.292969 113.074219 20.359375 111.894531 20.359375 C 111.023438 20.378906 110.285156 20.464844 110.148438 20.566406 C 109.996094 20.703125 109.707031 20.722656 109.242188 20.617188 C 108.867188 20.53125 108.285156 20.445312 107.941406 20.445312 C 107.601562 20.445312 107.222656 20.324219 107.105469 20.1875 C 106.933594 19.980469 106.832031 19.964844 106.660156 20.121094 C 106.488281 20.257812 106.351562 20.257812 106.199219 20.136719 C 106.042969 20 105.890625 20.101562 105.582031 20.550781 C 105.136719 21.203125 103.410156 22.300781 101.886719 22.9375 C 101.355469 23.144531 100.894531 23.367188 100.824219 23.433594 C 100.773438 23.488281 100.535156 23.539062 100.328125 23.539062 C 100.105469 23.539062 99.882812 23.605469 99.832031 23.710938 C 99.78125 23.796875 99.542969 23.882812 99.304688 23.882812 C 99.011719 23.882812 98.839844 24.019531 98.722656 24.3125 C 98.617188 24.570312 98.429688 24.742188 98.207031 24.742188 C 98.019531 24.742188 97.867188 24.828125 97.867188 24.929688 C 97.867188 25.015625 97.675781 25.394531 97.4375 25.738281 C 97.199219 26.082031 97.011719 26.527344 97.011719 26.71875 C 97.011719 26.992188 96.71875 27.214844 95.726562 27.664062 C 93.726562 28.574219 93.195312 29.378906 94.597656 29.378906 C 95.300781 29.378906 95.933594 29.742188 95.742188 30.035156 C 95.574219 30.324219 94.511719 30.289062 93.914062 29.964844 C 93.230469 29.621094 93.109375 29.757812 93.589844 30.359375 C 93.914062 30.773438 93.929688 30.839844 93.671875 30.890625 C 93.519531 30.925781 93.332031 31.148438 93.246094 31.375 C 93.125 31.664062 92.957031 31.785156 92.648438 31.785156 C 92.40625 31.785156 92.21875 31.890625 92.21875 32.027344 C 92.21875 32.148438 91.910156 32.457031 91.535156 32.714844 C 91.160156 32.953125 90.851562 33.230469 90.851562 33.332031 C 90.851562 33.589844 91.570312 34.019531 92.015625 34.019531 C 92.511719 34.019531 92.664062 34.433594 92.339844 34.929688 C 92.203125 35.136719 91.519531 35.890625 90.832031 36.597656 C 90.148438 37.300781 89.140625 38.417969 88.59375 39.085938 C 88.0625 39.742188 87.136719 40.859375 86.574219 41.542969 C 86.007812 42.230469 85.460938 42.988281 85.375 43.230469 C 85.273438 43.503906 85.101562 43.640625 84.964844 43.589844 C 84.8125 43.519531 84.761719 43.589844 84.8125 43.8125 C 84.914062 44.207031 84.265625 44.671875 83.628906 44.671875 C 83.269531 44.671875 83.152344 44.757812 83.152344 45.015625 C 83.152344 45.238281 82.996094 45.394531 82.691406 45.460938 C 81.835938 45.652344 80.894531 46.183594 80.671875 46.597656 C 80.566406 46.820312 80.378906 46.972656 80.277344 46.957031 C 80.15625 46.921875 80.070312 47.007812 80.070312 47.144531 C 80.070312 47.695312 79.472656 48.453125 79.046875 48.453125 C 78.496094 48.453125 78.191406 48.742188 78.191406 49.257812 C 78.191406 49.570312 78.085938 49.65625 77.777344 49.65625 C 77.558594 49.65625 77.335938 49.773438 77.265625 49.914062 C 77.214844 50.050781 77.027344 50.167969 76.855469 50.167969 C 76.683594 50.167969 76.152344 50.445312 75.691406 50.769531 C 75.230469 51.097656 74.734375 51.371094 74.578125 51.371094 C 74.1875 51.371094 73.039062 51.871094 72.679688 52.179688 C 72.390625 52.453125 71.808594 52.574219 70.472656 52.644531 C 69.996094 52.679688 69.5 52.832031 69.242188 53.039062 C 68.867188 53.332031 68.589844 53.382812 67.410156 53.347656 C 66.640625 53.3125 65.972656 53.246094 65.921875 53.195312 C 65.855469 53.140625 65.203125 53.089844 64.46875 53.089844 C 63.699219 53.089844 63.132812 53.023438 63.132812 52.917969 C 63.132812 52.816406 62.707031 52.746094 62.191406 52.746094 C 61.472656 52.746094 61.285156 52.695312 61.355469 52.507812 C 61.421875 52.351562 61.234375 52.25 60.738281 52.164062 L 60.019531 52.042969 L 60.3125 51.613281 L 60.601562 51.167969 L 60.070312 51.285156 C 59.402344 51.425781 58.855469 51.148438 58.976562 50.683594 C 59.042969 50.410156 58.976562 50.339844 58.601562 50.339844 C 58.257812 50.339844 57.914062 50.136719 57.453125 49.636719 C 57.09375 49.257812 56.734375 48.984375 56.648438 49.035156 C 56.460938 49.15625 54.820312 46.304688 54.664062 45.582031 C 54.613281 45.273438 54.476562 44.980469 54.390625 44.929688 C 54.304688 44.859375 54.238281 44.6875 54.238281 44.535156 C 54.238281 44.378906 54.03125 44.054688 53.773438 43.777344 C 53.261719 43.246094 53.363281 42.902344 53.894531 43.382812 C 54.476562 43.898438 54.511719 43.503906 53.996094 42.507812 C 53.636719 41.820312 53.3125 41.457031 52.832031 41.21875 L 52.167969 40.875 L 52.542969 40.359375 C 53.039062 39.65625 52.886719 39 52.21875 39.054688 C 51.617188 39.105469 51.585938 38.625 52.183594 38.46875 L 52.609375 38.367188 L 52.132812 38.160156 C 51.859375 38.058594 51.535156 37.972656 51.398438 37.972656 C 51.242188 37.972656 51.15625 37.78125 51.15625 37.386719 C 51.15625 36.527344 51.019531 36.269531 50.300781 35.910156 C 49.566406 35.53125 48.675781 34.292969 48.402344 33.246094 C 48.058594 32.007812 48.058594 32.007812 47.855469 32.421875 C 47.769531 32.644531 47.632812 32.816406 47.546875 32.816406 C 47.324219 32.816406 46.726562 31.375 46.484375 30.238281 C 46.347656 29.621094 46.125 28.882812 45.972656 28.589844 C 45.835938 28.296875 45.511719 27.421875 45.289062 26.613281 C 45.050781 25.824219 44.722656 24.808594 44.554688 24.363281 C 44.210938 23.46875 44.3125 23.179688 44.828125 23.503906 C 45.21875 23.746094 45.851562 23.777344 45.851562 23.554688 C 45.851562 23.46875 45.734375 23.316406 45.597656 23.195312 C 45.460938 23.074219 45.339844 22.886719 45.339844 22.765625 C 45.339844 22.628906 45.132812 22.300781 44.894531 22.007812 C 44.570312 21.613281 44.5 21.425781 44.636719 21.167969 C 44.773438 20.910156 44.691406 20.773438 44.246094 20.410156 C 43.9375 20.152344 43.507812 19.605469 43.304688 19.175781 C 43.117188 18.746094 42.875 18.382812 42.808594 18.382812 C 42.449219 18.382812 42.207031 17.285156 42.105469 15.238281 C 42.003906 13.179688 41.96875 13.007812 41.59375 12.695312 C 41.148438 12.335938 40.773438 12.285156 40.136719 12.523438 C 39.8125 12.664062 39.625 12.628906 39.300781 12.351562 C 38.683594 11.871094 37.898438 11.941406 36.714844 12.609375 C 35.261719 13.417969 34.902344 13.46875 33.757812 13.058594 C 33.210938 12.867188 32.542969 12.714844 32.269531 12.714844 C 31.824219 12.714844 26.742188 14.398438 25.921875 14.808594 C 25.734375 14.914062 25.203125 15.378906 24.738281 15.839844 C 22.394531 18.210938 19.007812 19.636719 15.160156 19.863281 C 13.773438 19.949219 13.292969 20.050781 12.710938 20.378906 C 12.320312 20.601562 11.273438 20.980469 10.402344 21.21875 C 9.53125 21.460938 8.074219 21.921875 7.1875 22.265625 C 5.628906 22.867188 5.492188 22.972656 3.832031 24.636719 C 2.34375 26.148438 2.070312 26.527344 1.710938 27.492188 C 1.488281 28.109375 1.027344 29.3125 0.648438 30.171875 C 0.289062 31.03125 0 31.921875 0 32.148438 C 0 32.746094 0.460938 33.332031 0.941406 33.332031 C 1.898438 33.332031 3.148438 33.746094 4.089844 34.378906 C 4.636719 34.742188 5.269531 35.050781 5.492188 35.050781 C 5.714844 35.050781 6.808594 34.773438 7.921875 34.433594 L 9.921875 33.777344 L 11.429688 34.261719 C 12.25 34.515625 13.039062 34.792969 13.175781 34.859375 C 13.535156 35.050781 13.652344 38.003906 13.5 42.265625 C 13.414062 44.105469 13.363281 48.589844 13.363281 52.230469 C 13.34375 65.71875 13.960938 69.878906 16.40625 72.539062 L 17.230469 73.433594 L 17.691406 73.140625 C 18.222656 72.78125 18.253906 72.523438 17.8125 71.972656 C 17.640625 71.75 17.109375 70.804688 16.628906 69.894531 C 15.636719 68.003906 15.382812 66.871094 15.039062 62.710938 C 14.832031 60.308594 14.730469 43.398438 14.917969 43.210938 C 14.96875 43.160156 15.226562 43.246094 15.5 43.382812 C 15.84375 43.554688 16.476562 43.625 17.453125 43.605469 C 18.75 43.589844 19.179688 43.65625 21.472656 44.398438 C 23.902344 45.171875 24.550781 45.460938 25.75 46.21875 C 26.039062 46.390625 26.46875 46.597656 26.726562 46.648438 C 27.136719 46.75 27.222656 46.683594 27.699219 45.839844 C 27.992188 45.34375 28.4375 44.414062 28.675781 43.761719 C 28.933594 43.109375 29.1875 42.660156 29.292969 42.714844 C 29.375 42.78125 29.652344 43.230469 29.871094 43.710938 C 30.214844 44.464844 30.265625 44.757812 30.179688 45.71875 C 30.09375 46.492188 30.128906 46.886719 30.265625 46.972656 C 30.386719 47.058594 30.453125 46.921875 30.453125 46.578125 C 30.453125 45.941406 30.660156 45.890625 30.96875 46.476562 C 31.15625 46.835938 31.15625 46.941406 30.917969 47.199219 C 30.710938 47.421875 30.695312 47.59375 30.832031 47.816406 C 30.984375 48.125 31.003906 48.125 31.363281 47.816406 C 31.703125 47.523438 31.703125 47.523438 31.582031 47.832031 C 31.515625 48.039062 31.582031 48.28125 31.789062 48.519531 C 32.148438 48.914062 32.507812 49.859375 32.507812 50.410156 C 32.507812 50.617188 32.765625 51.148438 33.089844 51.597656 C 33.773438 52.558594 35.554688 56.132812 36.167969 57.730469 C 36.820312 59.464844 38.617188 63.195312 39.4375 64.515625 C 39.933594 65.339844 41.0625 66.59375 42.894531 68.382812 C 46.246094 71.679688 47.425781 72.710938 49.273438 73.964844 C 51.257812 75.304688 56.359375 77.816406 58.429688 78.46875 C 60.996094 79.292969 66.402344 80.066406 69.636719 80.066406 C 72.921875 80.066406 79.609375 79.242188 82.039062 78.519531 C 82.707031 78.332031 83.628906 78.089844 84.09375 78.003906 C 84.570312 77.902344 85.289062 77.710938 85.71875 77.574219 C 88.183594 76.785156 91.089844 75.941406 91.347656 75.941406 C 91.519531 75.941406 92.269531 76.734375 93.175781 77.867188 C 95.453125 80.753906 95.882812 81.183594 98.054688 82.660156 C 99.148438 83.417969 100.140625 84.136719 100.261719 84.273438 C 100.5 84.550781 101.648438 89.292969 102.65625 94.101562 C 103.03125 95.925781 103.582031 98.210938 103.871094 99.171875 C 104.949219 102.8125 105.34375 105.339844 105.734375 111.199219 C 105.839844 112.691406 105.992188 114.359375 106.09375 114.890625 C 106.300781 115.921875 106.265625 117.089844 105.890625 125.097656 C 105.683594 129.617188 105.683594 129.6875 106.042969 130.253906 C 106.453125 130.941406 107.875 135.253906 108.132812 136.59375 C 108.523438 138.6875 108.644531 141.523438 108.472656 145.527344 C 108.25 150.578125 108.078125 152.535156 107.445312 156.4375 C 106.882812 159.992188 106.660156 160.664062 105.71875 162.140625 C 104.761719 163.601562 104.382812 164.71875 104.109375 166.78125 C 103.820312 169.066406 103.390625 169.667969 100.894531 171.367188 C 99.800781 172.105469 98.773438 172.5 97.300781 172.757812 C 96.582031 172.878906 95.914062 173.636719 95.195312 175.164062 C 94.476562 176.695312 94.683594 176.96875 96.597656 176.96875 C 97.148438 176.96875 97.402344 177.054688 97.574219 177.3125 C 97.933594 177.828125 98.824219 177.878906 104.109375 177.671875 C 110.21875 177.414062 111.707031 177.140625 112.714844 176.058594 C 113.074219 175.679688 113.09375 175.578125 112.921875 174.820312 C 112.820312 174.375 112.632812 173.789062 112.492188 173.53125 C 112.253906 173.070312 112.253906 173.050781 112.785156 172.949219 C 113.074219 172.898438 114.152344 172.84375 115.179688 172.84375 C 118.140625 172.84375 120.484375 172.125 121.238281 170.988281 C 121.5625 170.507812 121.597656 170.335938 121.441406 169.789062 C 121.1875 168.875 120.859375 168.273438 120.160156 167.503906 C 119.578125 166.867188 119.542969 166.746094 119.527344 165.648438 C 119.527344 164.511719 119.558594 164.410156 120.246094 163.429688 C 120.636719 162.863281 121.015625 162.160156 121.066406 161.867188 C 121.132812 161.574219 121.046875 160.628906 120.894531 159.753906 C 120.363281 156.59375 120.054688 153.242188 119.765625 147.433594 C 119.421875 140.5625 119.578125 134.976562 120.296875 127.402344 C 120.792969 122.109375 120.773438 120.992188 120.210938 119.496094 C 118.945312 116.25 117.59375 108.605469 116.941406 101.113281 C 116.789062 99.410156 116.480469 96.472656 116.257812 94.582031 C 115.589844 89.101562 115.558594 88.449219 115.898438 87.230469 C 116.070312 86.644531 116.308594 85.90625 116.445312 85.597656 L 116.703125 85.015625 L 117.300781 85.476562 C 119.21875 86.957031 122.792969 87.109375 128.527344 85.976562 C 130.375 85.597656 130.785156 85.5625 131.347656 85.753906 C 131.792969 85.890625 134.308594 85.976562 139.269531 86.027344 C 145.941406 86.097656 146.78125 86.078125 149.363281 85.734375 C 150.921875 85.546875 152.890625 85.21875 153.726562 85.046875 C 154.582031 84.859375 155.710938 84.617188 156.277344 84.515625 C 156.824219 84.414062 157.714844 84.171875 158.246094 83.984375 C 158.773438 83.8125 159.699219 83.554688 160.316406 83.417969 C 164.214844 82.609375 171.042969 78.570312 177.578125 73.246094 C 181.34375 70.152344 182.796875 69.070312 182.933594 69.207031 C 183 69.277344 182.984375 70.71875 182.882812 72.402344 C 182.695312 75.410156 182.695312 75.511719 183.070312 76.40625 C 183.277344 76.921875 183.414062 77.503906 183.359375 77.710938 C 183.308594 77.917969 183.054688 78.828125 182.8125 79.722656 C 182.558594 80.632812 182.351562 81.851562 182.335938 82.472656 C 182.316406 83.5 182.386719 83.726562 183.207031 85.339844 C 183.703125 86.320312 184.421875 88.054688 184.796875 89.207031 C 185.636719 91.679688 186.542969 93.726562 187.363281 94.925781 C 187.691406 95.410156 188.324219 96.542969 188.769531 97.4375 C 189.589844 99.085938 189.589844 99.101562 189.589844 100.785156 C 189.589844 101.730469 189.539062 103.070312 189.46875 103.777344 C 189.316406 105.769531 189.691406 112.691406 190.101562 115.132812 C 190.308594 116.320312 190.480469 118.105469 190.480469 119.152344 C 190.496094 121.179688 189.878906 126.902344 189.503906 128.171875 C 189.007812 129.839844 188.527344 132.332031 188.203125 134.960938 C 187.757812 138.636719 186.835938 142.261719 184.695312 148.707031 C 182.351562 155.785156 181.667969 157.519531 180.792969 158.601562 C 179.71875 159.925781 179.050781 160.921875 178.160156 162.503906 C 177.097656 164.390625 175.882812 165.507812 173.898438 166.386719 C 172.769531 166.902344 172.050781 167.089844 171.078125 167.175781 C 169.691406 167.296875 168.988281 167.621094 168.152344 168.5 C 167.484375 169.203125 167.3125 169.769531 167.535156 170.542969 C 167.808594 171.453125 167.929688 171.589844 168.664062 171.695312 C 170.511719 172.003906 175.421875 172.382812 177.59375 172.398438 C 179.800781 172.417969 180.144531 172.382812 180.675781 172.054688 C 181.683594 171.472656 181.871094 170.816406 181.617188 168.773438 L 181.480469 167.726562 L 182.933594 166.28125 L 184.386719 164.855469 L 185.019531 162.675781 C 185.363281 161.472656 185.875 159.925781 186.167969 159.238281 C 186.457031 158.550781 187.347656 156.28125 188.152344 154.203125 C 191.746094 144.890625 196.160156 135.511719 199.253906 130.613281 C 199.804688 129.738281 200.386719 128.808594 200.523438 128.550781 C 200.660156 128.292969 200.828125 128.054688 200.914062 128.035156 C 200.984375 128 201.035156 127.863281 201.035156 127.746094 C 201.035156 127.605469 201.171875 127.402344 201.34375 127.28125 C 201.71875 127.003906 202.746094 125.011719 202.746094 124.566406 C 202.746094 124.394531 202.59375 123.585938 202.421875 122.8125 C 201.308594 117.96875 200.230469 101.542969 201.019531 101.542969 C 201.257812 101.542969 201.703125 103.347656 202.660156 108.035156 C 203.550781 112.402344 204.527344 115.75 205.980469 119.460938 C 206.097656 119.789062 206.167969 122.367188 206.167969 127.453125 C 206.167969 133.414062 206.21875 135.167969 206.425781 135.992188 C 206.835938 137.742188 206.75 140.148438 205.980469 147.933594 C 205.894531 148.929688 205.585938 151.195312 205.3125 153 C 205.039062 154.789062 204.746094 157.003906 204.644531 157.914062 C 204.386719 160.183594 203.753906 162.261719 202.574219 164.683594 C 202.011719 165.816406 201.445312 167.226562 201.308594 167.8125 C 201 169.167969 200.589844 169.839844 199.339844 170.988281 C 198.210938 172.039062 196.859375 172.640625 195.234375 172.84375 C 194.242188 172.984375 194.070312 173.070312 193.300781 173.824219 C 192.34375 174.753906 191.96875 175.371094 191.96875 176.007812 C 191.96875 176.539062 192.550781 176.96875 193.285156 176.96875 C 193.644531 176.96875 193.917969 177.089844 194.089844 177.347656 C 194.449219 177.863281 195.40625 177.984375 199.324219 177.984375 C 202.898438 178 205.328125 177.792969 206.253906 177.414062 C 207.210938 177.003906 207.382812 175.628906 206.699219 173.824219 C 206.238281 172.605469 206.511719 171.796875 208.066406 169.925781 L 208.699219 169.132812 L 208.820312 166.316406 C 209.023438 160.75 209.367188 158.171875 210.789062 151.367188 C 211.148438 149.617188 211.523438 147.570312 211.625 146.832031 C 211.847656 145.269531 212.601562 141.988281 213.355469 139.308594 C 214.140625 136.457031 216.261719 129.875 216.621094 129.136719 C 216.792969 128.757812 216.945312 128.328125 216.945312 128.171875 C 216.945312 128.019531 217.136719 127.640625 217.375 127.316406 C 217.613281 126.988281 217.800781 126.660156 217.800781 126.59375 C 217.800781 126.507812 218.074219 126.042969 218.417969 125.546875 C 218.964844 124.753906 219.015625 124.566406 218.949219 123.878906 C 218.898438 123.449219 218.433594 122.125 217.90625 120.921875 C 216.640625 118.019531 215.902344 115.699219 215.148438 112.332031 C 214.792969 110.785156 214.296875 108.722656 214.039062 107.726562 C 212.859375 103.363281 212.652344 101.285156 212.773438 94.859375 C 212.859375 89.875 212.925781 88.863281 213.132812 89.070312 C 213.285156 89.207031 213.523438 90.5625 213.714844 92.316406 C 213.796875 93.140625 214.054688 94.359375 214.277344 95.011719 C 214.671875 96.148438 214.6875 96.269531 214.449219 96.835938 C 214.105469 97.640625 214.210938 97.710938 214.808594 97.074219 C 215.082031 96.785156 215.40625 96.558594 215.527344 96.558594 C 215.800781 96.558594 215.816406 96.320312 215.542969 95.871094 C 215.390625 95.632812 215.390625 95.460938 215.542969 95.152344 C 215.648438 94.925781 215.785156 94.566406 215.816406 94.328125 C 215.851562 94.085938 216.023438 93.554688 216.175781 93.125 C 216.332031 92.695312 216.503906 91.699219 216.554688 90.890625 C 216.605469 90.046875 216.742188 89.328125 216.878906 89.171875 C 217.015625 89.015625 217.066406 88.726562 217 88.5 C 216.945312 88.277344 216.980469 88.054688 217.101562 87.96875 C 217.273438 87.882812 217.273438 87.675781 217.117188 87.09375 C 216.945312 86.507812 216.964844 86.078125 217.117188 85.1875 C 217.375 83.878906 217.253906 83.246094 216.503906 81.730469 C 216.28125 81.269531 216.089844 80.820312 216.089844 80.71875 C 216.089844 80.632812 215.765625 79.757812 215.390625 78.777344 C 214.875 77.503906 214.707031 76.871094 214.792969 76.542969 C 214.945312 75.960938 215.269531 76.078125 215.527344 76.816406 C 215.699219 77.332031 215.730469 77.351562 215.730469 76.972656 C 215.75 76.542969 215.648438 76.355469 214.652344 74.910156 C 214.125 74.171875 214.074219 73.65625 213.988281 68.8125 C 213.988281 68.296875 214.347656 64.996094 214.738281 62.195312 C 214.929688 60.824219 215.082031 59.15625 215.097656 58.503906 C 215.132812 56.9375 214.757812 50.289062 214.535156 48.589844 C 214.175781 45.875 213.097656 43.554688 210.90625 40.910156 C 210.171875 40 209.367188 38.898438 209.144531 38.46875 C 208.941406 38.039062 208.476562 37.214844 208.152344 36.664062 C 207.808594 36.117188 207.535156 35.515625 207.535156 35.34375 C 207.535156 35.1875 207.484375 35.050781 207.398438 35.050781 C 207.332031 35.050781 207.175781 34.808594 207.039062 34.515625 C 206.921875 34.226562 206.441406 33.710938 205.980469 33.382812 C 205.519531 33.058594 205.140625 32.714844 205.140625 32.609375 C 205.140625 32.507812 204.953125 32.285156 204.714844 32.09375 C 204.472656 31.90625 204.285156 31.613281 204.285156 31.441406 C 204.285156 31.253906 204.199219 30.910156 204.082031 30.6875 C 203.925781 30.324219 203.945312 30.1875 204.167969 29.929688 C 204.527344 29.535156 204.527344 29.003906 204.199219 28.058594 C 204.0625 27.664062 203.996094 27.214844 204.046875 27.09375 C 204.148438 26.820312 202.59375 25.324219 201.890625 25.015625 C 201.652344 24.914062 201.121094 24.621094 200.691406 24.363281 C 200.265625 24.121094 199.460938 23.761719 198.898438 23.554688 C 197.21875 22.988281 195.832031 22.371094 195.628906 22.09375 C 195.527344 21.941406 195.199219 21.820312 194.910156 21.820312 C 194.617188 21.820312 194.328125 21.734375 194.277344 21.648438 C 194.226562 21.546875 193.832031 21.476562 193.4375 21.476562 C 193.027344 21.476562 192.359375 21.355469 191.96875 21.21875 C 191.574219 21.082031 191.179688 20.996094 191.113281 21.046875 C 191.042969 21.097656 190.890625 21.011719 190.769531 20.875 C 190.617188 20.6875 190.203125 20.617188 189.296875 20.617188 C 188.21875 20.617188 187.996094 20.566406 187.828125 20.273438 C 187.707031 20.085938 187.484375 19.929688 187.347656 19.929688 C 187.195312 19.929688 186.921875 19.828125 186.75 19.691406 C 186.578125 19.570312 186.285156 19.5 186.117188 19.550781 C 185.910156 19.605469 185.808594 19.535156 185.808594 19.347656 C 185.808594 18.984375 185.328125 18.8125 184.011719 18.660156 C 183.019531 18.539062 181.324219 17.886719 181.101562 17.507812 C 181.035156 17.421875 180.8125 17.25 180.625 17.164062 C 180.417969 17.078125 179.75 16.734375 179.136719 16.410156 C 178.519531 16.082031 177.921875 15.808594 177.800781 15.808594 C 177.679688 15.808594 177.542969 15.667969 177.476562 15.496094 C 177.425781 15.34375 177.269531 15.085938 177.152344 14.949219 C 177.03125 14.808594 176.945312 14.605469 176.960938 14.519531 C 176.980469 14.414062 176.757812 14.328125 176.449219 14.296875 C 176.089844 14.261719 175.867188 14.125 175.796875 13.917969 C 175.695312 13.574219 173.539062 12.027344 173.199219 12.027344 C 172.855469 12.027344 172.308594 11.082031 172.410156 10.6875 C 172.480469 10.378906 172.445312 10.324219 172.222656 10.410156 C 171.847656 10.550781 170.921875 10.152344 170.921875 9.863281 C 170.921875 9.726562 170.804688 9.621094 170.664062 9.621094 C 170.308594 9.621094 170.339844 9.449219 170.804688 8.96875 L 171.179688 8.554688 L 170.496094 8.675781 C 169.929688 8.78125 169.84375 8.761719 170.03125 8.574219 C 170.359375 8.210938 170.273438 7.902344 169.863281 7.953125 C 169.554688 7.988281 169.453125 7.886719 169.417969 7.507812 C 169.382812 7.199219 169.261719 7.042969 169.058594 7.042969 C 168.902344 7.042969 168.457031 6.890625 168.101562 6.683594 C 167.65625 6.460938 167.226562 6.375 166.867188 6.425781 C 166.285156 6.511719 166.167969 6.390625 166.492188 6.066406 C 166.609375 5.945312 166.269531 5.859375 165.292969 5.808594 C 164.164062 5.738281 163.820312 5.652344 163.496094 5.34375 C 163.273438 5.136719 162.8125 4.929688 162.46875 4.863281 C 161.613281 4.726562 161.546875 4.519531 162.265625 4.175781 C 162.609375 4.019531 162.882812 3.832031 162.882812 3.78125 C 162.882812 3.710938 162.589844 3.589844 162.25 3.503906 C 161.71875 3.382812 161.597656 3.265625 161.613281 2.957031 C 161.632812 2.59375 161.5625 2.558594 161.1875 2.664062 C 160.484375 2.851562 158.964844 2.957031 158.671875 2.851562 C 158.449219 2.765625 158.5 2.644531 158.964844 2.214844 C 159.683594 1.527344 159.460938 1.324219 157.9375 1.238281 C 157.011719 1.183594 156.773438 1.117188 156.839844 0.929688 C 156.945312 0.636719 156.449219 0.601562 155.78125 0.859375 C 155.4375 0.996094 155.265625 0.980469 155.078125 0.773438 C 154.445312 0.15625 154.328125 0.136719 150.546875 0.222656 C 149.296875 0.257812 148.628906 0.34375 148.421875 0.515625 C 147.960938 0.894531 146.628906 0.84375 146.027344 0.414062 C 145.515625 0.0507812 145.5 0.0507812 144.917969 0.359375 Z M 122.503906 14.070312 C 122.503906 14.261719 121.835938 14.433594 121.734375 14.261719 C 121.699219 14.191406 121.699219 14.089844 121.765625 14.019531 C 121.9375 13.867188 122.503906 13.898438 122.503906 14.070312 Z M 21.421875 37.09375 C 24.671875 38.402344 26.332031 39.191406 26.828125 39.636719 C 26.945312 39.757812 27.136719 39.859375 27.238281 39.859375 C 27.632812 39.859375 26.449219 43.539062 25.921875 43.984375 C 25.75 44.140625 25.066406 43.984375 22.890625 43.296875 C 19.078125 42.09375 18.667969 41.886719 18.101562 40.976562 C 17.65625 40.238281 17.640625 40.1875 17.742188 37.988281 C 17.792969 36.75 17.894531 35.738281 17.949219 35.738281 C 18.015625 35.738281 19.574219 36.355469 21.421875 37.09375 Z M 50.542969 37.316406 C 51.121094 38.125 50.644531 38.640625 49.875 38.074219 C 49.582031 37.867188 49.566406 37.765625 49.753906 37.386719 C 49.992188 36.835938 50.199219 36.820312 50.542969 37.316406 Z M 17.792969 41.234375 C 17.792969 41.734375 17.007812 43.230469 16.679688 43.367188 C 16.289062 43.503906 16.339844 43.519531 15.65625 42.9375 C 15.226562 42.558594 15.054688 42.265625 15.054688 41.90625 C 15.054688 41.425781 15.089844 41.40625 15.878906 41.40625 C 16.339844 41.40625 16.851562 41.304688 17.039062 41.148438 C 17.503906 40.804688 17.792969 40.839844 17.792969 41.234375 Z M 213.609375 87.28125 C 213.765625 87.761719 213.78125 88.140625 213.695312 88.3125 C 213.558594 88.535156 213.542969 88.535156 213.523438 88.277344 C 213.523438 88.125 213.4375 87.96875 213.355469 87.933594 C 213.25 87.898438 213.132812 87.300781 213.097656 86.59375 C 213.011719 85.21875 212.996094 85.1875 213.609375 87.28125 Z M 215.117188 90.890625 C 215.21875 92.882812 215.046875 92.882812 214.722656 90.855469 C 214.550781 89.773438 214.550781 89.464844 214.722656 89.257812 C 214.84375 89.101562 214.960938 89.015625 214.980469 89.035156 C 214.996094 89.070312 215.066406 89.894531 215.117188 90.890625 Z M 215.234375 93.964844 C 215.234375 94.34375 214.792969 94.960938 214.636719 94.808594 C 214.570312 94.738281 214.570312 94.378906 214.636719 93.984375 C 214.738281 93.398438 214.792969 93.3125 214.996094 93.484375 C 215.132812 93.585938 215.234375 93.8125 215.234375 93.964844 Z M 114.785156 141.402344 C 114.890625 142.484375 115.027344 145.664062 115.078125 148.449219 C 115.214844 154.734375 115.078125 156.367188 114.136719 159.101562 C 113.777344 160.199219 113.367188 161.675781 113.246094 162.417969 C 113.128906 163.136719 112.957031 163.738281 112.871094 163.738281 C 112.664062 163.738281 112.820312 153 113.074219 149.996094 C 113.179688 148.722656 113.332031 146.558594 113.433594 145.183594 C 113.539062 143.808594 113.777344 141.917969 113.964844 140.972656 C 114.136719 140.027344 114.289062 139.222656 114.289062 139.167969 C 114.289062 139.136719 114.359375 139.167969 114.445312 139.253906 C 114.53125 139.359375 114.683594 140.320312 114.785156 141.402344 Z M 114.785156 141.402344 "/>
<path style=" stroke:none;fill-rule:nonzero;fill:rgb(0%,0%,0%);fill-opacity:1;" d="M 121.851562 9.296875 C 121.886719 9.414062 122.023438 9.554688 122.144531 9.585938 C 122.28125 9.640625 122.347656 9.570312 122.296875 9.433594 C 122.261719 9.3125 122.125 9.175781 122.007812 9.140625 C 121.871094 9.089844 121.800781 9.15625 121.851562 9.296875 Z M 121.851562 9.296875 "/>
<path style=" stroke:none;fill-rule:nonzero;fill:rgb(0%,0%,0%);fill-opacity:1;" d="M 54.578125 44.328125 C 54.578125 44.414062 54.664062 44.5 54.765625 44.5 C 54.851562 44.5 54.886719 44.414062 54.835938 44.328125 C 54.785156 44.226562 54.699219 44.15625 54.648438 44.15625 C 54.613281 44.15625 54.578125 44.226562 54.578125 44.328125 Z M 54.578125 44.328125 "/>
<path style=" stroke:none;fill-rule:nonzero;fill:rgb(0%,0%,0%);fill-opacity:1;" d="M 54.921875 45.1875 C 54.921875 45.273438 55.007812 45.359375 55.109375 45.359375 C 55.195312 45.359375 55.230469 45.273438 55.179688 45.1875 C 55.125 45.085938 55.039062 45.015625 54.988281 45.015625 C 54.957031 45.015625 54.921875 45.085938 54.921875 45.1875 Z M 54.921875 45.1875 "/>
</g>
</svg>
